solid OpenSCAD_Model
  facet normal -1 0 0
    outer loop
      vertex -19 -16 -3.5
      vertex -19 3 3.5
      vertex -19 3 -3.5
    endloop
  endfacet
  facet normal -1 -0 0
    outer loop
      vertex -19 3 3.5
      vertex -19 -16 -3.5
      vertex -19 -16 3.5
    endloop
  endfacet
  facet normal 0 0 1
    outer loop
      vertex -9.44469 7.86502 3.5
      vertex -14.6142 4.57402 3.5
      vertex -14.5 4 3.5
    endloop
  endfacet
  facet normal 0 0 1
    outer loop
      vertex -16.574 5.38582 3.5
      vertex -14.135 12.5553 3.5
      vertex -14.7382 13.5618 3.5
    endloop
  endfacet
  facet normal 0 0 1
    outer loop
      vertex -13.1412 11.2153 3.5
      vertex -14.9393 5.06066 3.5
      vertex -14.6142 4.57402 3.5
    endloop
  endfacet
  facet normal 0 0 1
    outer loop
      vertex -13.1412 11.2153 3.5
      vertex -15.426 5.38582 3.5
      vertex -14.9393 5.06066 3.5
    endloop
  endfacet
  facet normal 0 0 1
    outer loop
      vertex -13.1412 11.2153 3.5
      vertex -16 5.5 3.5
      vertex -15.426 5.38582 3.5
    endloop
  endfacet
  facet normal 0 0 1
    outer loop
      vertex -14.135 12.5553 3.5
      vertex -16.574 5.38582 3.5
      vertex -16 5.5 3.5
    endloop
  endfacet
  facet normal 0 0 1
    outer loop
      vertex -14.7382 13.5618 3.5
      vertex -17.0607 5.06066 3.5
      vertex -16.574 5.38582 3.5
    endloop
  endfacet
  facet normal 0 0 1
    outer loop
      vertex -19 3 3.5
      vertex -17.0607 5.06066 3.5
      vertex -14.7382 13.5618 3.5
    endloop
  endfacet
  facet normal 0 0 1
    outer loop
      vertex -17.3858 4.57402 3.5
      vertex -19 3 3.5
      vertex -17.5 4 3.5
    endloop
  endfacet
  facet normal 0 0 1
    outer loop
      vertex -17.0607 5.06066 3.5
      vertex -19 3 3.5
      vertex -17.3858 4.57402 3.5
    endloop
  endfacet
  facet normal 0 0 1
    outer loop
      vertex 15.426 2.61418 3.5
      vertex 16 0 3.5
      vertex 16 2.5 3.5
    endloop
  endfacet
  facet normal 0 0 1
    outer loop
      vertex 14.9393 2.93934 3.5
      vertex 16 0 3.5
      vertex 15.426 2.61418 3.5
    endloop
  endfacet
  facet normal 0 0 1
    outer loop
      vertex 14.6142 3.42597 3.5
      vertex 16 0 3.5
      vertex 14.9393 2.93934 3.5
    endloop
  endfacet
  facet normal -0 0 1
    outer loop
      vertex 10.7847 8.85882 3.5
      vertex 14.9393 5.06066 3.5
      vertex 12.0208 9.97918 3.5
    endloop
  endfacet
  facet normal 0 0 1
    outer loop
      vertex 14.9393 5.06066 3.5
      vertex 10.7847 8.85882 3.5
      vertex 14.6142 4.57402 3.5
    endloop
  endfacet
  facet normal -0 0 1
    outer loop
      vertex 9.44469 7.86502 3.5
      vertex 14.6142 4.57402 3.5
      vertex 10.7847 8.85882 3.5
    endloop
  endfacet
  facet normal 0 0 1
    outer loop
      vertex 14.6142 4.57402 3.5
      vertex 9.44469 7.86502 3.5
      vertex 14.5 4 3.5
    endloop
  endfacet
  facet normal -0 0 1
    outer loop
      vertex 8.01374 7.00734 3.5
      vertex 14.5 4 3.5
      vertex 9.44469 7.86502 3.5
    endloop
  endfacet
  facet normal 0 0 1
    outer loop
      vertex 14.5 4 3.5
      vertex 8.01374 7.00734 3.5
      vertex 14.6142 3.42597 3.5
    endloop
  endfacet
  facet normal -0 0 1
    outer loop
      vertex 6.50562 6.29405 3.5
      vertex 14.6142 3.42597 3.5
      vertex 8.01374 7.00734 3.5
    endloop
  endfacet
  facet normal 0 0 1
    outer loop
      vertex 14.6142 3.42597 3.5
      vertex 6.50562 6.29405 3.5
      vertex 16 0 3.5
    endloop
  endfacet
  facet normal -0 0 1
    outer loop
      vertex 4.93484 5.73201 3.5
      vertex 16 0 3.5
      vertex 6.50562 6.29405 3.5
    endloop
  endfacet
  facet normal -0 0 1
    outer loop
      vertex 3.31653 5.32665 3.5
      vertex 16 0 3.5
      vertex 4.93484 5.73201 3.5
    endloop
  endfacet
  facet normal -0 0 1
    outer loop
      vertex 1.66629 5.08186 3.5
      vertex 16 0 3.5
      vertex 3.31653 5.32665 3.5
    endloop
  endfacet
  facet normal -0 0 1
    outer loop
      vertex 0 5 3.5
      vertex 16 0 3.5
      vertex 1.66629 5.08186 3.5
    endloop
  endfacet
  facet normal 0 0 1
    outer loop
      vertex -16 0 3.5
      vertex 0 5 3.5
      vertex -1.66629 5.08186 3.5
    endloop
  endfacet
  facet normal 0 0 1
    outer loop
      vertex -16 0 3.5
      vertex -1.66629 5.08186 3.5
      vertex -3.31653 5.32665 3.5
    endloop
  endfacet
  facet normal 0 0 1
    outer loop
      vertex -16 0 3.5
      vertex -3.31653 5.32665 3.5
      vertex -4.93484 5.73201 3.5
    endloop
  endfacet
  facet normal 0 0 1
    outer loop
      vertex -16 5.5 3.5
      vertex -13.1412 11.2153 3.5
      vertex -14.135 12.5553 3.5
    endloop
  endfacet
  facet normal 0 0 1
    outer loop
      vertex -14.6142 4.57402 3.5
      vertex -12.0208 9.97918 3.5
      vertex -13.1412 11.2153 3.5
    endloop
  endfacet
  facet normal 0 0 1
    outer loop
      vertex -14.6142 4.57402 3.5
      vertex -10.7847 8.85882 3.5
      vertex -12.0208 9.97918 3.5
    endloop
  endfacet
  facet normal 0 0 1
    outer loop
      vertex -14.6142 4.57402 3.5
      vertex -9.44469 7.86502 3.5
      vertex -10.7847 8.85882 3.5
    endloop
  endfacet
  facet normal 0 0 1
    outer loop
      vertex -14.5 4 3.5
      vertex -8.01374 7.00734 3.5
      vertex -9.44469 7.86502 3.5
    endloop
  endfacet
  facet normal 0 0 1
    outer loop
      vertex -14.6142 3.42597 3.5
      vertex -8.01374 7.00734 3.5
      vertex -14.5 4 3.5
    endloop
  endfacet
  facet normal 0 0 1
    outer loop
      vertex -8.01374 7.00734 3.5
      vertex -14.6142 3.42597 3.5
      vertex -6.50562 6.29405 3.5
    endloop
  endfacet
  facet normal 0 0 1
    outer loop
      vertex -16 0 3.5
      vertex -6.50562 6.29405 3.5
      vertex -14.6142 3.42597 3.5
    endloop
  endfacet
  facet normal 0 0 1
    outer loop
      vertex -6.50562 6.29405 3.5
      vertex -16 0 3.5
      vertex -4.93484 5.73201 3.5
    endloop
  endfacet
  facet normal 0 0 1
    outer loop
      vertex -16 0 3.5
      vertex -14.6142 3.42597 3.5
      vertex -14.9393 2.93934 3.5
    endloop
  endfacet
  facet normal 0 0 1
    outer loop
      vertex -16 0 3.5
      vertex -14.9393 2.93934 3.5
      vertex -15.426 2.61418 3.5
    endloop
  endfacet
  facet normal 0 0 1
    outer loop
      vertex -16 0 3.5
      vertex -15.426 2.61418 3.5
      vertex -16 2.5 3.5
    endloop
  endfacet
  facet normal 0 0 1
    outer loop
      vertex 0 5 3.5
      vertex -16 0 3.5
      vertex 16 0 3.5
    endloop
  endfacet
  facet normal 0 0 1
    outer loop
      vertex -16.574 2.61418 3.5
      vertex -16 0 3.5
      vertex -16 2.5 3.5
    endloop
  endfacet
  facet normal 0 0 1
    outer loop
      vertex -17.0607 2.93934 3.5
      vertex -16 0 3.5
      vertex -16.574 2.61418 3.5
    endloop
  endfacet
  facet normal -0 0 1
    outer loop
      vertex 17.3858 3.42597 3.5
      vertex 19 3 3.5
      vertex 17.5 4 3.5
    endloop
  endfacet
  facet normal 0 0 1
    outer loop
      vertex 19 3 3.5
      vertex 17.3858 4.57402 3.5
      vertex 17.5 4 3.5
    endloop
  endfacet
  facet normal 0 0 1
    outer loop
      vertex 19 3 3.5
      vertex 17.0607 5.06066 3.5
      vertex 17.3858 4.57402 3.5
    endloop
  endfacet
  facet normal 0 0 1
    outer loop
      vertex 14.7382 13.5618 3.5
      vertex 17.0607 5.06066 3.5
      vertex 19 3 3.5
    endloop
  endfacet
  facet normal 0 0 1
    outer loop
      vertex 14.7382 13.5618 3.5
      vertex 16.574 5.38582 3.5
      vertex 17.0607 5.06066 3.5
    endloop
  endfacet
  facet normal -0 0 1
    outer loop
      vertex 14.135 12.5553 3.5
      vertex 16.574 5.38582 3.5
      vertex 14.7382 13.5618 3.5
    endloop
  endfacet
  facet normal 0 0 1
    outer loop
      vertex 16.574 5.38582 3.5
      vertex 14.135 12.5553 3.5
      vertex 16 5.5 3.5
    endloop
  endfacet
  facet normal -0 0 1
    outer loop
      vertex 13.1412 11.2153 3.5
      vertex 16 5.5 3.5
      vertex 14.135 12.5553 3.5
    endloop
  endfacet
  facet normal 0 0 1
    outer loop
      vertex 16 5.5 3.5
      vertex 13.1412 11.2153 3.5
      vertex 15.426 5.38582 3.5
    endloop
  endfacet
  facet normal -0 0 1
    outer loop
      vertex 12.0208 9.97918 3.5
      vertex 15.426 5.38582 3.5
      vertex 13.1412 11.2153 3.5
    endloop
  endfacet
  facet normal 0 0 1
    outer loop
      vertex 15.426 5.38582 3.5
      vertex 12.0208 9.97918 3.5
      vertex 14.9393 5.06066 3.5
    endloop
  endfacet
  facet normal 0 0 1
    outer loop
      vertex 17.0607 2.93934 3.5
      vertex 19 3 3.5
      vertex 17.3858 3.42597 3.5
    endloop
  endfacet
  facet normal 0 0 1
    outer loop
      vertex 19 3 3.5
      vertex 17.0607 2.93934 3.5
      vertex 16 0 3.5
    endloop
  endfacet
  facet normal 0 0 1
    outer loop
      vertex 16 0 3.5
      vertex 17.0607 2.93934 3.5
      vertex 16.574 2.61418 3.5
    endloop
  endfacet
  facet normal 0 0 1
    outer loop
      vertex 16 0 3.5
      vertex 16.574 2.61418 3.5
      vertex 16 2.5 3.5
    endloop
  endfacet
  facet normal 0 0 1
    outer loop
      vertex 19 3 3.5
      vertex 16 0 3.5
      vertex 19 -16 3.5
    endloop
  endfacet
  facet normal -0 0 1
    outer loop
      vertex 16 -13 3.5
      vertex 19 -16 3.5
      vertex 16 0 3.5
    endloop
  endfacet
  facet normal -0 0 1
    outer loop
      vertex -16 -13 3.5
      vertex 19 -16 3.5
      vertex 16 -13 3.5
    endloop
  endfacet
  facet normal 0 0 1
    outer loop
      vertex -16 0 3.5
      vertex -17.0607 2.93934 3.5
      vertex -19 3 3.5
    endloop
  endfacet
  facet normal -0 0 1
    outer loop
      vertex -19 3 3.5
      vertex -17.0607 2.93934 3.5
      vertex -17.3858 3.42597 3.5
    endloop
  endfacet
  facet normal 0 0 1
    outer loop
      vertex -19 3 3.5
      vertex -17.3858 3.42597 3.5
      vertex -17.5 4 3.5
    endloop
  endfacet
  facet normal 0 0 1
    outer loop
      vertex -16 0 3.5
      vertex -19 3 3.5
      vertex -16 -13 3.5
    endloop
  endfacet
  facet normal 0 0 1
    outer loop
      vertex -16 -13 3.5
      vertex -19 -16 3.5
      vertex 19 -16 3.5
    endloop
  endfacet
  facet normal 0 0 1
    outer loop
      vertex -19 -16 3.5
      vertex -16 -13 3.5
      vertex -19 3 3.5
    endloop
  endfacet
  facet normal 1 -0 0
    outer loop
      vertex 19 -16 3.5
      vertex 19 3 -3.5
      vertex 19 3 3.5
    endloop
  endfacet
  facet normal 1 0 0
    outer loop
      vertex 19 3 -3.5
      vertex 19 -16 3.5
      vertex 19 -16 -3.5
    endloop
  endfacet
  facet normal 0 0 -1
    outer loop
      vertex 16 0 -3.5
      vertex 19 3 -3.5
      vertex 19 -16 -3.5
    endloop
  endfacet
  facet normal 0 0 -1
    outer loop
      vertex 19 3 -3.5
      vertex 17.3858 3.42597 -3.5
      vertex 17.5 4 -3.5
    endloop
  endfacet
  facet normal 0 -0 -1
    outer loop
      vertex 17.0607 2.93934 -3.5
      vertex 19 3 -3.5
      vertex 16 0 -3.5
    endloop
  endfacet
  facet normal -0 0 -1
    outer loop
      vertex 19 3 -3.5
      vertex 17.0607 2.93934 -3.5
      vertex 17.3858 3.42597 -3.5
    endloop
  endfacet
  facet normal 0 0 -1
    outer loop
      vertex 16 0 -3.5
      vertex 19 -16 -3.5
      vertex 16 -13 -3.5
    endloop
  endfacet
  facet normal 0 0 -1
    outer loop
      vertex 19 -16 -3.5
      vertex -16 -13 -3.5
      vertex 16 -13 -3.5
    endloop
  endfacet
  facet normal 0 0 -1
    outer loop
      vertex -19 3 -3.5
      vertex -16 0 -3.5
      vertex -16 -13 -3.5
    endloop
  endfacet
  facet normal 0 0 -1
    outer loop
      vertex -16 0 -3.5
      vertex -16.574 2.61418 -3.5
      vertex -16 2.5 -3.5
    endloop
  endfacet
  facet normal -0 -0 -1
    outer loop
      vertex -17.0607 2.93934 -3.5
      vertex -16 0 -3.5
      vertex -19 3 -3.5
    endloop
  endfacet
  facet normal 0 0 -1
    outer loop
      vertex -16 0 -3.5
      vertex -17.0607 2.93934 -3.5
      vertex -16.574 2.61418 -3.5
    endloop
  endfacet
  facet normal 0 0 -1
    outer loop
      vertex -17.0607 2.93934 -3.5
      vertex -19 3 -3.5
      vertex -17.3858 3.42597 -3.5
    endloop
  endfacet
  facet normal 0 0 -1
    outer loop
      vertex -19 3 -3.5
      vertex -16 -13 -3.5
      vertex -19 -16 -3.5
    endloop
  endfacet
  facet normal 0 0 -1
    outer loop
      vertex -19 -16 -3.5
      vertex -16 -13 -3.5
      vertex 19 -16 -3.5
    endloop
  endfacet
  facet normal 0 0 -1
    outer loop
      vertex 17.3858 4.57402 -3.5
      vertex 19 3 -3.5
      vertex 17.5 4 -3.5
    endloop
  endfacet
  facet normal 0 0 -1
    outer loop
      vertex 17.0607 5.06066 -3.5
      vertex 19 3 -3.5
      vertex 17.3858 4.57402 -3.5
    endloop
  endfacet
  facet normal 0 0 -1
    outer loop
      vertex 17.0607 5.06066 -3.5
      vertex 14.7382 13.5618 -3.5
      vertex 19 3 -3.5
    endloop
  endfacet
  facet normal 0 0 -1
    outer loop
      vertex 16.574 5.38582 -3.5
      vertex 14.7382 13.5618 -3.5
      vertex 17.0607 5.06066 -3.5
    endloop
  endfacet
  facet normal 0 0 -1
    outer loop
      vertex 14.135 12.5553 -3.5
      vertex 16.574 5.38582 -3.5
      vertex 16 5.5 -3.5
    endloop
  endfacet
  facet normal 0 0 -1
    outer loop
      vertex 13.1412 11.2153 -3.5
      vertex 16 5.5 -3.5
      vertex 15.426 5.38582 -3.5
    endloop
  endfacet
  facet normal 0 0 -1
    outer loop
      vertex 12.0208 9.97918 -3.5
      vertex 15.426 5.38582 -3.5
      vertex 14.9393 5.06066 -3.5
    endloop
  endfacet
  facet normal 0 0 -1
    outer loop
      vertex 10.7847 8.85882 -3.5
      vertex 14.9393 5.06066 -3.5
      vertex 14.6142 4.57402 -3.5
    endloop
  endfacet
  facet normal 0 0 -1
    outer loop
      vertex 9.44469 7.86502 -3.5
      vertex 14.6142 4.57402 -3.5
      vertex 14.5 4 -3.5
    endloop
  endfacet
  facet normal 0 0 -1
    outer loop
      vertex 16.574 5.38582 -3.5
      vertex 14.135 12.5553 -3.5
      vertex 14.7382 13.5618 -3.5
    endloop
  endfacet
  facet normal 0 0 -1
    outer loop
      vertex 17.0607 2.93934 -3.5
      vertex 16 0 -3.5
      vertex 16.574 2.61418 -3.5
    endloop
  endfacet
  facet normal 0 0 -1
    outer loop
      vertex 16 0 -3.5
      vertex 16 2.5 -3.5
      vertex 16.574 2.61418 -3.5
    endloop
  endfacet
  facet normal 0 0 -1
    outer loop
      vertex 16 0 -3.5
      vertex 15.426 2.61418 -3.5
      vertex 16 2.5 -3.5
    endloop
  endfacet
  facet normal 0 0 -1
    outer loop
      vertex 16 0 -3.5
      vertex 14.9393 2.93934 -3.5
      vertex 15.426 2.61418 -3.5
    endloop
  endfacet
  facet normal 0 0 -1
    outer loop
      vertex 16 0 -3.5
      vertex 14.6142 3.42597 -3.5
      vertex 14.9393 2.93934 -3.5
    endloop
  endfacet
  facet normal 0 0 -1
    outer loop
      vertex 16 5.5 -3.5
      vertex 13.1412 11.2153 -3.5
      vertex 14.135 12.5553 -3.5
    endloop
  endfacet
  facet normal 0 0 -1
    outer loop
      vertex 15.426 5.38582 -3.5
      vertex 12.0208 9.97918 -3.5
      vertex 13.1412 11.2153 -3.5
    endloop
  endfacet
  facet normal 0 0 -1
    outer loop
      vertex 8.01374 7.00734 -3.5
      vertex 14.5 4 -3.5
      vertex 14.6142 3.42597 -3.5
    endloop
  endfacet
  facet normal 0 0 -1
    outer loop
      vertex 14.9393 5.06066 -3.5
      vertex 10.7847 8.85882 -3.5
      vertex 12.0208 9.97918 -3.5
    endloop
  endfacet
  facet normal 0 0 -1
    outer loop
      vertex 6.50562 6.29405 -3.5
      vertex 14.6142 3.42597 -3.5
      vertex 16 0 -3.5
    endloop
  endfacet
  facet normal 0 0 -1
    outer loop
      vertex 14.6142 4.57402 -3.5
      vertex 9.44469 7.86502 -3.5
      vertex 10.7847 8.85882 -3.5
    endloop
  endfacet
  facet normal 0 0 -1
    outer loop
      vertex 14.5 4 -3.5
      vertex 8.01374 7.00734 -3.5
      vertex 9.44469 7.86502 -3.5
    endloop
  endfacet
  facet normal 0 0 -1
    outer loop
      vertex 14.6142 3.42597 -3.5
      vertex 6.50562 6.29405 -3.5
      vertex 8.01374 7.00734 -3.5
    endloop
  endfacet
  facet normal 0 0 -1
    outer loop
      vertex 16 0 -3.5
      vertex 4.93484 5.73201 -3.5
      vertex 6.50562 6.29405 -3.5
    endloop
  endfacet
  facet normal 0 0 -1
    outer loop
      vertex 16 0 -3.5
      vertex 3.31653 5.32665 -3.5
      vertex 4.93484 5.73201 -3.5
    endloop
  endfacet
  facet normal 0 0 -1
    outer loop
      vertex 16 0 -3.5
      vertex 1.66629 5.08186 -3.5
      vertex 3.31653 5.32665 -3.5
    endloop
  endfacet
  facet normal 0 0 -1
    outer loop
      vertex 16 0 -3.5
      vertex 0 5 -3.5
      vertex 1.66629 5.08186 -3.5
    endloop
  endfacet
  facet normal 0 0 -1
    outer loop
      vertex -16 0 -3.5
      vertex 0 5 -3.5
      vertex 16 0 -3.5
    endloop
  endfacet
  facet normal -0 0 -1
    outer loop
      vertex 0 5 -3.5
      vertex -16 0 -3.5
      vertex -1.66629 5.08186 -3.5
    endloop
  endfacet
  facet normal -0 0 -1
    outer loop
      vertex -1.66629 5.08186 -3.5
      vertex -16 0 -3.5
      vertex -3.31653 5.32665 -3.5
    endloop
  endfacet
  facet normal -0 0 -1
    outer loop
      vertex -10.7847 8.85882 -3.5
      vertex -14.9393 5.06066 -3.5
      vertex -12.0208 9.97918 -3.5
    endloop
  endfacet
  facet normal 0 0 -1
    outer loop
      vertex -14.9393 5.06066 -3.5
      vertex -10.7847 8.85882 -3.5
      vertex -14.6142 4.57402 -3.5
    endloop
  endfacet
  facet normal -0 0 -1
    outer loop
      vertex -9.44469 7.86502 -3.5
      vertex -14.6142 4.57402 -3.5
      vertex -10.7847 8.85882 -3.5
    endloop
  endfacet
  facet normal 0 0 -1
    outer loop
      vertex -14.6142 4.57402 -3.5
      vertex -9.44469 7.86502 -3.5
      vertex -14.5 4 -3.5
    endloop
  endfacet
  facet normal -0 0 -1
    outer loop
      vertex -8.01374 7.00734 -3.5
      vertex -14.5 4 -3.5
      vertex -9.44469 7.86502 -3.5
    endloop
  endfacet
  facet normal 0 0 -1
    outer loop
      vertex -14.6142 3.42597 -3.5
      vertex -8.01374 7.00734 -3.5
      vertex -6.50562 6.29405 -3.5
    endloop
  endfacet
  facet normal 0 0 -1
    outer loop
      vertex -16 0 -3.5
      vertex -6.50562 6.29405 -3.5
      vertex -4.93484 5.73201 -3.5
    endloop
  endfacet
  facet normal -0 0 -1
    outer loop
      vertex -3.31653 5.32665 -3.5
      vertex -16 0 -3.5
      vertex -4.93484 5.73201 -3.5
    endloop
  endfacet
  facet normal 0 0 -1
    outer loop
      vertex -8.01374 7.00734 -3.5
      vertex -14.6142 3.42597 -3.5
      vertex -14.5 4 -3.5
    endloop
  endfacet
  facet normal 0 0 -1
    outer loop
      vertex -6.50562 6.29405 -3.5
      vertex -16 0 -3.5
      vertex -14.6142 3.42597 -3.5
    endloop
  endfacet
  facet normal 0 0 -1
    outer loop
      vertex -14.6142 3.42597 -3.5
      vertex -16 0 -3.5
      vertex -14.9393 2.93934 -3.5
    endloop
  endfacet
  facet normal 0 0 -1
    outer loop
      vertex -14.9393 2.93934 -3.5
      vertex -16 0 -3.5
      vertex -15.426 2.61418 -3.5
    endloop
  endfacet
  facet normal 0 0 -1
    outer loop
      vertex -15.426 2.61418 -3.5
      vertex -16 0 -3.5
      vertex -16 2.5 -3.5
    endloop
  endfacet
  facet normal 0 0 -1
    outer loop
      vertex -15.426 5.38582 -3.5
      vertex -12.0208 9.97918 -3.5
      vertex -14.9393 5.06066 -3.5
    endloop
  endfacet
  facet normal -0 0 -1
    outer loop
      vertex -12.0208 9.97918 -3.5
      vertex -15.426 5.38582 -3.5
      vertex -13.1412 11.2153 -3.5
    endloop
  endfacet
  facet normal 0 0 -1
    outer loop
      vertex -16 5.5 -3.5
      vertex -13.1412 11.2153 -3.5
      vertex -15.426 5.38582 -3.5
    endloop
  endfacet
  facet normal -0 0 -1
    outer loop
      vertex -13.1412 11.2153 -3.5
      vertex -16 5.5 -3.5
      vertex -14.135 12.5553 -3.5
    endloop
  endfacet
  facet normal 0 0 -1
    outer loop
      vertex -16.574 5.38582 -3.5
      vertex -14.135 12.5553 -3.5
      vertex -16 5.5 -3.5
    endloop
  endfacet
  facet normal -0 0 -1
    outer loop
      vertex -14.135 12.5553 -3.5
      vertex -16.574 5.38582 -3.5
      vertex -14.7382 13.5618 -3.5
    endloop
  endfacet
  facet normal 0 0 -1
    outer loop
      vertex -17.0607 5.06066 -3.5
      vertex -14.7382 13.5618 -3.5
      vertex -16.574 5.38582 -3.5
    endloop
  endfacet
  facet normal 0 0 -1
    outer loop
      vertex -19 3 -3.5
      vertex -17.0607 5.06066 -3.5
      vertex -17.3858 4.57402 -3.5
    endloop
  endfacet
  facet normal -0 0 -1
    outer loop
      vertex -17.0607 5.06066 -3.5
      vertex -19 3 -3.5
      vertex -14.7382 13.5618 -3.5
    endloop
  endfacet
  facet normal -0 0 -1
    outer loop
      vertex -17.5 4 -3.5
      vertex -19 3 -3.5
      vertex -17.3858 4.57402 -3.5
    endloop
  endfacet
  facet normal -0 0 -1
    outer loop
      vertex -17.3858 3.42597 -3.5
      vertex -19 3 -3.5
      vertex -17.5 4 -3.5
    endloop
  endfacet
  facet normal 0 -1 0
    outer loop
      vertex -19 -16 -3.5
      vertex 19 -16 3.5
      vertex -19 -16 3.5
    endloop
  endfacet
  facet normal 0 -1 -0
    outer loop
      vertex 19 -16 3.5
      vertex -19 -16 -3.5
      vertex 19 -16 -3.5
    endloop
  endfacet
  facet normal 1 -0 0
    outer loop
      vertex -16 -13 3.5
      vertex -16 0 -3.5
      vertex -16 0 3.5
    endloop
  endfacet
  facet normal 1 0 0
    outer loop
      vertex -16 0 -3.5
      vertex -16 -13 3.5
      vertex -16 -13 -3.5
    endloop
  endfacet
  facet normal -1 0 0
    outer loop
      vertex 16 -13 -3.5
      vertex 16 0 3.5
      vertex 16 0 -3.5
    endloop
  endfacet
  facet normal -1 -0 0
    outer loop
      vertex 16 0 3.5
      vertex 16 -13 -3.5
      vertex 16 -13 3.5
    endloop
  endfacet
  facet normal 0 -1 0
    outer loop
      vertex -16 0 -3.5
      vertex 16 0 3.5
      vertex -16 0 3.5
    endloop
  endfacet
  facet normal 0 -1 -0
    outer loop
      vertex 16 0 3.5
      vertex -16 0 -3.5
      vertex 16 0 -3.5
    endloop
  endfacet
  facet normal 0 1 -0
    outer loop
      vertex 16 -13 -3.5
      vertex -16 -13 3.5
      vertex 16 -13 3.5
    endloop
  endfacet
  facet normal 0 1 0
    outer loop
      vertex -16 -13 3.5
      vertex 16 -13 -3.5
      vertex -16 -13 -3.5
    endloop
  endfacet
  facet normal 0.927351 0.374194 0
    outer loop
      vertex 14.7382 13.5618 3.5
      vertex 15.2302 12.3426 2.5
      vertex 14.7382 13.5618 -3.5
    endloop
  endfacet
  facet normal 0.92735 0.374194 -1.10476e-06
    outer loop
      vertex 14.7382 13.5618 3.5
      vertex 16.1689 10.0162 2.5
      vertex 15.2302 12.3426 2.5
    endloop
  endfacet
  facet normal 0.92735 0.374194 0
    outer loop
      vertex 16.1689 10.0162 2.5
      vertex 19 3 3.5
      vertex 16.1689 10.0162 -2.5
    endloop
  endfacet
  facet normal 0.92735 0.374194 -6.35996e-07
    outer loop
      vertex 19 3 3.5
      vertex 16.1689 10.0162 2.5
      vertex 14.7382 13.5618 3.5
    endloop
  endfacet
  facet normal 0.927351 0.374194 -0
    outer loop
      vertex 15.2302 12.3426 -2.5
      vertex 14.7382 13.5618 -3.5
      vertex 15.2302 12.3426 2.5
    endloop
  endfacet
  facet normal 0.92735 0.374194 1.10476e-06
    outer loop
      vertex 16.1689 10.0162 -2.5
      vertex 14.7382 13.5618 -3.5
      vertex 15.2302 12.3426 -2.5
    endloop
  endfacet
  facet normal 0.92735 0.374194 6.35996e-07
    outer loop
      vertex 16.1689 10.0162 -2.5
      vertex 19 3 -3.5
      vertex 14.7382 13.5618 -3.5
    endloop
  endfacet
  facet normal 0.92735 0.374194 -0
    outer loop
      vertex 19 3 -3.5
      vertex 16.1689 10.0162 -2.5
      vertex 19 3 3.5
    endloop
  endfacet
  facet normal -0.927351 0.374194 0
    outer loop
      vertex -14.7382 13.5618 -3.5
      vertex -15.2302 12.3426 -2.5
      vertex -14.7382 13.5618 3.5
    endloop
  endfacet
  facet normal -0.92735 0.374194 1.10476e-06
    outer loop
      vertex -14.7382 13.5618 -3.5
      vertex -16.1689 10.0162 -2.5
      vertex -15.2302 12.3426 -2.5
    endloop
  endfacet
  facet normal -0.92735 0.374194 0
    outer loop
      vertex -16.1689 10.0162 -2.5
      vertex -19 3 -3.5
      vertex -16.1689 10.0162 2.5
    endloop
  endfacet
  facet normal -0.92735 0.374194 6.35996e-07
    outer loop
      vertex -19 3 -3.5
      vertex -16.1689 10.0162 -2.5
      vertex -14.7382 13.5618 -3.5
    endloop
  endfacet
  facet normal -0.927351 0.374194 0
    outer loop
      vertex -15.2302 12.3426 2.5
      vertex -14.7382 13.5618 3.5
      vertex -15.2302 12.3426 -2.5
    endloop
  endfacet
  facet normal -0.92735 0.374194 -1.10476e-06
    outer loop
      vertex -16.1689 10.0162 2.5
      vertex -14.7382 13.5618 3.5
      vertex -15.2302 12.3426 2.5
    endloop
  endfacet
  facet normal -0.92735 0.374194 -6.35996e-07
    outer loop
      vertex -16.1689 10.0162 2.5
      vertex -19 3 3.5
      vertex -14.7382 13.5618 3.5
    endloop
  endfacet
  facet normal -0.92735 0.374194 0
    outer loop
      vertex -19 3 3.5
      vertex -16.1689 10.0162 2.5
      vertex -19 3 -3.5
    endloop
  endfacet
  facet normal 0.24298 0.970031 -0
    outer loop
      vertex -3.93107 2.23718 -2.5
      vertex -5.84924 2.71765 2.5
      vertex -3.93107 2.23718 2.5
    endloop
  endfacet
  facet normal 0.24298 0.970031 0
    outer loop
      vertex -5.84924 2.71765 2.5
      vertex -3.93107 2.23718 -2.5
      vertex -5.84924 2.71765 -2.5
    endloop
  endfacet
  facet normal -0 0 1
    outer loop
      vertex 15.008 11.972 -2.5
      vertex 16.1689 10.0162 -2.5
      vertex 15.2302 12.3426 -2.5
    endloop
  endfacet
  facet normal -0 0 1
    outer loop
      vertex 13.9528 10.5492 -2.5
      vertex 16.1689 10.0162 -2.5
      vertex 15.008 11.972 -2.5
    endloop
  endfacet
  facet normal 0 0 1
    outer loop
      vertex 16.1689 10.0162 -2.5
      vertex 13.9528 10.5492 -2.5
      vertex 15.5762 9.21698 -2.5
    endloop
  endfacet
  facet normal 0 0 1
    outer loop
      vertex 15.5762 9.21698 -2.5
      vertex 13.9528 10.5492 -2.5
      vertex 14.2482 7.7518 -2.5
    endloop
  endfacet
  facet normal -0 0 1
    outer loop
      vertex 12.7633 9.23672 -2.5
      vertex 14.2482 7.7518 -2.5
      vertex 13.9528 10.5492 -2.5
    endloop
  endfacet
  facet normal 0 0 1
    outer loop
      vertex 14.2482 7.7518 -2.5
      vertex 12.7633 9.23672 -2.5
      vertex 12.783 6.42384 -2.5
    endloop
  endfacet
  facet normal -0 0 1
    outer loop
      vertex 11.4508 8.04716 -2.5
      vertex 12.783 6.42384 -2.5
      vertex 12.7633 9.23672 -2.5
    endloop
  endfacet
  facet normal 0 0 1
    outer loop
      vertex 11.4508 8.04716 -2.5
      vertex 11.1947 5.24589 -2.5
      vertex 12.783 6.42384 -2.5
    endloop
  endfacet
  facet normal -0 0 1
    outer loop
      vertex 10.028 6.99197 -2.5
      vertex 11.1947 5.24589 -2.5
      vertex 11.4508 8.04716 -2.5
    endloop
  endfacet
  facet normal 0 0 1
    outer loop
      vertex 10.028 6.99197 -2.5
      vertex 9.49864 4.22929 -2.5
      vertex 11.1947 5.24589 -2.5
    endloop
  endfacet
  facet normal -0 0 1
    outer loop
      vertex 8.50871 6.08132 -2.5
      vertex 9.49864 4.22929 -2.5
      vertex 10.028 6.99197 -2.5
    endloop
  endfacet
  facet normal 0 0 1
    outer loop
      vertex 8.50871 6.08132 -2.5
      vertex 7.71107 3.38383 -2.5
      vertex 9.49864 4.22929 -2.5
    endloop
  endfacet
  facet normal -0 0 1
    outer loop
      vertex 6.90744 5.32397 -2.5
      vertex 7.71107 3.38383 -2.5
      vertex 8.50871 6.08132 -2.5
    endloop
  endfacet
  facet normal 0 0 1
    outer loop
      vertex 6.90744 5.32397 -2.5
      vertex 5.84924 2.71765 -2.5
      vertex 7.71107 3.38383 -2.5
    endloop
  endfacet
  facet normal -0 0 1
    outer loop
      vertex 5.23964 4.72723 -2.5
      vertex 5.84924 2.71765 -2.5
      vertex 6.90744 5.32397 -2.5
    endloop
  endfacet
  facet normal 0 0 1
    outer loop
      vertex 5.23964 4.72723 -2.5
      vertex 3.93107 2.23718 -2.5
      vertex 5.84924 2.71765 -2.5
    endloop
  endfacet
  facet normal -0 0 1
    outer loop
      vertex 3.52138 4.29683 -2.5
      vertex 3.93107 2.23718 -2.5
      vertex 5.23964 4.72723 -2.5
    endloop
  endfacet
  facet normal 0 0 1
    outer loop
      vertex 3.52138 4.29683 -2.5
      vertex 1.97505 1.94703 -2.5
      vertex 3.93107 2.23718 -2.5
    endloop
  endfacet
  facet normal -0 0 1
    outer loop
      vertex 1.76921 4.03691 -2.5
      vertex 1.97505 1.94703 -2.5
      vertex 3.52138 4.29683 -2.5
    endloop
  endfacet
  facet normal -0 0 1
    outer loop
      vertex 0 3.95 -2.5
      vertex 1.97505 1.94703 -2.5
      vertex 1.76921 4.03691 -2.5
    endloop
  endfacet
  facet normal 0 0 1
    outer loop
      vertex 0 3.95 -2.5
      vertex 0 1.85 -2.5
      vertex 1.97505 1.94703 -2.5
    endloop
  endfacet
  facet normal 0 0 1
    outer loop
      vertex -1.76921 4.03691 -2.5
      vertex 0 1.85 -2.5
      vertex 0 3.95 -2.5
    endloop
  endfacet
  facet normal 0 0 1
    outer loop
      vertex -1.76921 4.03691 -2.5
      vertex -1.97505 1.94703 -2.5
      vertex 0 1.85 -2.5
    endloop
  endfacet
  facet normal 0 0 1
    outer loop
      vertex -3.52138 4.29683 -2.5
      vertex -1.97505 1.94703 -2.5
      vertex -1.76921 4.03691 -2.5
    endloop
  endfacet
  facet normal 0 0 1
    outer loop
      vertex -3.52138 4.29683 -2.5
      vertex -3.93107 2.23718 -2.5
      vertex -1.97505 1.94703 -2.5
    endloop
  endfacet
  facet normal 0 0 1
    outer loop
      vertex -5.23964 4.72723 -2.5
      vertex -3.93107 2.23718 -2.5
      vertex -3.52138 4.29683 -2.5
    endloop
  endfacet
  facet normal 0 0 1
    outer loop
      vertex -5.23964 4.72723 -2.5
      vertex -5.84924 2.71765 -2.5
      vertex -3.93107 2.23718 -2.5
    endloop
  endfacet
  facet normal 0 0 1
    outer loop
      vertex -6.90744 5.32397 -2.5
      vertex -5.84924 2.71765 -2.5
      vertex -5.23964 4.72723 -2.5
    endloop
  endfacet
  facet normal 0 0 1
    outer loop
      vertex -6.90744 5.32397 -2.5
      vertex -7.71107 3.38383 -2.5
      vertex -5.84924 2.71765 -2.5
    endloop
  endfacet
  facet normal 0 0 1
    outer loop
      vertex -8.50871 6.08132 -2.5
      vertex -7.71107 3.38383 -2.5
      vertex -6.90744 5.32397 -2.5
    endloop
  endfacet
  facet normal 0 0 1
    outer loop
      vertex -8.50871 6.08132 -2.5
      vertex -9.49864 4.22929 -2.5
      vertex -7.71107 3.38383 -2.5
    endloop
  endfacet
  facet normal 0 0 1
    outer loop
      vertex -10.028 6.99197 -2.5
      vertex -9.49864 4.22929 -2.5
      vertex -8.50871 6.08132 -2.5
    endloop
  endfacet
  facet normal 0 0 1
    outer loop
      vertex -10.028 6.99197 -2.5
      vertex -11.1947 5.24589 -2.5
      vertex -9.49864 4.22929 -2.5
    endloop
  endfacet
  facet normal 0 0 1
    outer loop
      vertex -11.4508 8.04716 -2.5
      vertex -11.1947 5.24589 -2.5
      vertex -10.028 6.99197 -2.5
    endloop
  endfacet
  facet normal 0 0 1
    outer loop
      vertex -12.783 6.42384 -2.5
      vertex -11.4508 8.04716 -2.5
      vertex -12.7633 9.23672 -2.5
    endloop
  endfacet
  facet normal 0 0 1
    outer loop
      vertex -11.4508 8.04716 -2.5
      vertex -12.783 6.42384 -2.5
      vertex -11.1947 5.24589 -2.5
    endloop
  endfacet
  facet normal 0 0 1
    outer loop
      vertex -14.2482 7.7518 -2.5
      vertex -12.7633 9.23672 -2.5
      vertex -13.9528 10.5492 -2.5
    endloop
  endfacet
  facet normal 0 0 1
    outer loop
      vertex -12.7633 9.23672 -2.5
      vertex -14.2482 7.7518 -2.5
      vertex -12.783 6.42384 -2.5
    endloop
  endfacet
  facet normal 0 0 1
    outer loop
      vertex -16.1689 10.0162 -2.5
      vertex -13.9528 10.5492 -2.5
      vertex -15.008 11.972 -2.5
    endloop
  endfacet
  facet normal 0 0 1
    outer loop
      vertex -16.1689 10.0162 -2.5
      vertex -15.008 11.972 -2.5
      vertex -15.2302 12.3426 -2.5
    endloop
  endfacet
  facet normal 0 0 1
    outer loop
      vertex -13.9528 10.5492 -2.5
      vertex -15.5762 9.21698 -2.5
      vertex -14.2482 7.7518 -2.5
    endloop
  endfacet
  facet normal 0 0 1
    outer loop
      vertex -13.9528 10.5492 -2.5
      vertex -16.1689 10.0162 -2.5
      vertex -15.5762 9.21698 -2.5
    endloop
  endfacet
  facet normal -0.33689 0.941544 0
    outer loop
      vertex 7.71107 3.38383 -2.5
      vertex 5.84924 2.71765 2.5
      vertex 7.71107 3.38383 2.5
    endloop
  endfacet
  facet normal -0.33689 0.941544 0
    outer loop
      vertex 5.84924 2.71765 2.5
      vertex 7.71107 3.38383 -2.5
      vertex 5.84924 2.71765 -2.5
    endloop
  endfacet
  facet normal -0.740951 0.671559 0
    outer loop
      vertex 14.2482 7.7518 -2.5
      vertex 15.5762 9.21698 2.5
      vertex 15.5762 9.21698 -2.5
    endloop
  endfacet
  facet normal -0.740951 0.671559 0
    outer loop
      vertex 15.5762 9.21698 2.5
      vertex 14.2482 7.7518 -2.5
      vertex 14.2482 7.7518 2.5
    endloop
  endfacet
  facet normal -0.14673 0.989177 0
    outer loop
      vertex 3.93107 2.23718 -2.5
      vertex 1.97505 1.94703 2.5
      vertex 3.93107 2.23718 2.5
    endloop
  endfacet
  facet normal -0.14673 0.989177 0
    outer loop
      vertex 1.97505 1.94703 2.5
      vertex 3.93107 2.23718 -2.5
      vertex 1.97505 1.94703 -2.5
    endloop
  endfacet
  facet normal -0.24298 0.970031 0
    outer loop
      vertex 5.84924 2.71765 -2.5
      vertex 3.93107 2.23718 2.5
      vertex 5.84924 2.71765 2.5
    endloop
  endfacet
  facet normal -0.24298 0.970031 0
    outer loop
      vertex 3.93107 2.23718 2.5
      vertex 5.84924 2.71765 -2.5
      vertex 3.93107 2.23718 -2.5
    endloop
  endfacet
  facet normal -0.514103 0.857729 0
    outer loop
      vertex 11.1947 5.24589 -2.5
      vertex 9.49864 4.22929 2.5
      vertex 11.1947 5.24589 2.5
    endloop
  endfacet
  facet normal -0.514103 0.857729 0
    outer loop
      vertex 9.49864 4.22929 2.5
      vertex 11.1947 5.24589 -2.5
      vertex 9.49864 4.22929 -2.5
    endloop
  endfacet
  facet normal -0.671559 0.740951 0
    outer loop
      vertex 14.2482 7.7518 -2.5
      vertex 12.783 6.42384 2.5
      vertex 14.2482 7.7518 2.5
    endloop
  endfacet
  facet normal -0.671559 0.740951 0
    outer loop
      vertex 12.783 6.42384 2.5
      vertex 14.2482 7.7518 -2.5
      vertex 12.783 6.42384 -2.5
    endloop
  endfacet
  facet normal -0.595699 0.803208 0
    outer loop
      vertex 12.783 6.42384 -2.5
      vertex 11.1947 5.24589 2.5
      vertex 12.783 6.42384 2.5
    endloop
  endfacet
  facet normal -0.595699 0.803208 0
    outer loop
      vertex 11.1947 5.24589 2.5
      vertex 12.783 6.42384 -2.5
      vertex 11.1947 5.24589 -2.5
    endloop
  endfacet
  facet normal -0.803208 0.595699 0
    outer loop
      vertex 15.5762 9.21698 -2.5
      vertex 16.1689 10.0162 2.5
      vertex 16.1689 10.0162 -2.5
    endloop
  endfacet
  facet normal -0.803208 0.595699 0
    outer loop
      vertex 16.1689 10.0162 2.5
      vertex 15.5762 9.21698 -2.5
      vertex 15.5762 9.21698 2.5
    endloop
  endfacet
  facet normal 0.0490677 0.998795 -0
    outer loop
      vertex 0 1.85 -2.5
      vertex -1.97505 1.94703 2.5
      vertex 0 1.85 2.5
    endloop
  endfacet
  facet normal 0.0490677 0.998795 0
    outer loop
      vertex -1.97505 1.94703 2.5
      vertex 0 1.85 -2.5
      vertex -1.97505 1.94703 -2.5
    endloop
  endfacet
  facet normal -0.0490677 0.998795 0
    outer loop
      vertex 1.97505 1.94703 -2.5
      vertex 0 1.85 2.5
      vertex 1.97505 1.94703 2.5
    endloop
  endfacet
  facet normal -0.0490677 0.998795 0
    outer loop
      vertex 0 1.85 2.5
      vertex 1.97505 1.94703 -2.5
      vertex 0 1.85 -2.5
    endloop
  endfacet
  facet normal 0.427555 0.903989 -0
    outer loop
      vertex -7.71107 3.38383 -2.5
      vertex -9.49864 4.22929 2.5
      vertex -7.71107 3.38383 2.5
    endloop
  endfacet
  facet normal 0.427555 0.903989 0
    outer loop
      vertex -9.49864 4.22929 2.5
      vertex -7.71107 3.38383 -2.5
      vertex -9.49864 4.22929 -2.5
    endloop
  endfacet
  facet normal 0.595699 0.803208 -0
    outer loop
      vertex -11.1947 5.24589 -2.5
      vertex -12.783 6.42384 2.5
      vertex -11.1947 5.24589 2.5
    endloop
  endfacet
  facet normal 0.595699 0.803208 0
    outer loop
      vertex -12.783 6.42384 2.5
      vertex -11.1947 5.24589 -2.5
      vertex -12.783 6.42384 -2.5
    endloop
  endfacet
  facet normal 0.33689 0.941544 -0
    outer loop
      vertex -5.84924 2.71765 -2.5
      vertex -7.71107 3.38383 2.5
      vertex -5.84924 2.71765 2.5
    endloop
  endfacet
  facet normal 0.33689 0.941544 0
    outer loop
      vertex -7.71107 3.38383 2.5
      vertex -5.84924 2.71765 -2.5
      vertex -7.71107 3.38383 -2.5
    endloop
  endfacet
  facet normal 0.740951 0.671559 0
    outer loop
      vertex -14.2482 7.7518 2.5
      vertex -15.5762 9.21698 -2.5
      vertex -15.5762 9.21698 2.5
    endloop
  endfacet
  facet normal 0.740951 0.671559 0
    outer loop
      vertex -15.5762 9.21698 -2.5
      vertex -14.2482 7.7518 2.5
      vertex -14.2482 7.7518 -2.5
    endloop
  endfacet
  facet normal 0.671559 0.740951 -0
    outer loop
      vertex -12.783 6.42384 -2.5
      vertex -14.2482 7.7518 2.5
      vertex -12.783 6.42384 2.5
    endloop
  endfacet
  facet normal 0.671559 0.740951 0
    outer loop
      vertex -14.2482 7.7518 2.5
      vertex -12.783 6.42384 -2.5
      vertex -14.2482 7.7518 -2.5
    endloop
  endfacet
  facet normal 0.803208 0.595699 0
    outer loop
      vertex -15.5762 9.21698 2.5
      vertex -16.1689 10.0162 -2.5
      vertex -16.1689 10.0162 2.5
    endloop
  endfacet
  facet normal 0.803208 0.595699 0
    outer loop
      vertex -16.1689 10.0162 -2.5
      vertex -15.5762 9.21698 2.5
      vertex -15.5762 9.21698 -2.5
    endloop
  endfacet
  facet normal 0 0 -1
    outer loop
      vertex 13.9528 10.5492 2.5
      vertex 16.1689 10.0162 2.5
      vertex 15.5762 9.21698 2.5
    endloop
  endfacet
  facet normal 0 0 -1
    outer loop
      vertex 16.1689 10.0162 2.5
      vertex 15.008 11.972 2.5
      vertex 15.2302 12.3426 2.5
    endloop
  endfacet
  facet normal 0 0 -1
    outer loop
      vertex 13.9528 10.5492 2.5
      vertex 15.5762 9.21698 2.5
      vertex 14.2482 7.7518 2.5
    endloop
  endfacet
  facet normal 0 0 -1
    outer loop
      vertex 16.1689 10.0162 2.5
      vertex 13.9528 10.5492 2.5
      vertex 15.008 11.972 2.5
    endloop
  endfacet
  facet normal 0 0 -1
    outer loop
      vertex 12.7633 9.23672 2.5
      vertex 14.2482 7.7518 2.5
      vertex 12.783 6.42384 2.5
    endloop
  endfacet
  facet normal 0 0 -1
    outer loop
      vertex 14.2482 7.7518 2.5
      vertex 12.7633 9.23672 2.5
      vertex 13.9528 10.5492 2.5
    endloop
  endfacet
  facet normal 0 0 -1
    outer loop
      vertex 12.783 6.42384 2.5
      vertex 11.4508 8.04716 2.5
      vertex 12.7633 9.23672 2.5
    endloop
  endfacet
  facet normal 0 0 -1
    outer loop
      vertex 11.1947 5.24589 2.5
      vertex 11.4508 8.04716 2.5
      vertex 12.783 6.42384 2.5
    endloop
  endfacet
  facet normal 0 0 -1
    outer loop
      vertex 11.1947 5.24589 2.5
      vertex 10.028 6.99197 2.5
      vertex 11.4508 8.04716 2.5
    endloop
  endfacet
  facet normal 0 0 -1
    outer loop
      vertex 9.49864 4.22929 2.5
      vertex 10.028 6.99197 2.5
      vertex 11.1947 5.24589 2.5
    endloop
  endfacet
  facet normal 0 0 -1
    outer loop
      vertex 9.49864 4.22929 2.5
      vertex 8.50871 6.08132 2.5
      vertex 10.028 6.99197 2.5
    endloop
  endfacet
  facet normal 0 0 -1
    outer loop
      vertex 7.71107 3.38383 2.5
      vertex 8.50871 6.08132 2.5
      vertex 9.49864 4.22929 2.5
    endloop
  endfacet
  facet normal 0 0 -1
    outer loop
      vertex 7.71107 3.38383 2.5
      vertex 6.90744 5.32397 2.5
      vertex 8.50871 6.08132 2.5
    endloop
  endfacet
  facet normal 0 0 -1
    outer loop
      vertex 5.84924 2.71765 2.5
      vertex 6.90744 5.32397 2.5
      vertex 7.71107 3.38383 2.5
    endloop
  endfacet
  facet normal 0 0 -1
    outer loop
      vertex 5.84924 2.71765 2.5
      vertex 5.23964 4.72723 2.5
      vertex 6.90744 5.32397 2.5
    endloop
  endfacet
  facet normal 0 0 -1
    outer loop
      vertex 3.93107 2.23718 2.5
      vertex 5.23964 4.72723 2.5
      vertex 5.84924 2.71765 2.5
    endloop
  endfacet
  facet normal 0 0 -1
    outer loop
      vertex 3.93107 2.23718 2.5
      vertex 3.52138 4.29683 2.5
      vertex 5.23964 4.72723 2.5
    endloop
  endfacet
  facet normal 0 0 -1
    outer loop
      vertex 1.97505 1.94703 2.5
      vertex 3.52138 4.29683 2.5
      vertex 3.93107 2.23718 2.5
    endloop
  endfacet
  facet normal 0 0 -1
    outer loop
      vertex 1.97505 1.94703 2.5
      vertex 1.76921 4.03691 2.5
      vertex 3.52138 4.29683 2.5
    endloop
  endfacet
  facet normal 0 0 -1
    outer loop
      vertex 0 1.85 2.5
      vertex 1.76921 4.03691 2.5
      vertex 1.97505 1.94703 2.5
    endloop
  endfacet
  facet normal 0 0 -1
    outer loop
      vertex 0 1.85 2.5
      vertex 0 3.95 2.5
      vertex 1.76921 4.03691 2.5
    endloop
  endfacet
  facet normal 0 0 -1
    outer loop
      vertex 0 1.85 2.5
      vertex -1.76921 4.03691 2.5
      vertex 0 3.95 2.5
    endloop
  endfacet
  facet normal 0 0 -1
    outer loop
      vertex -1.97505 1.94703 2.5
      vertex -1.76921 4.03691 2.5
      vertex 0 1.85 2.5
    endloop
  endfacet
  facet normal 0 0 -1
    outer loop
      vertex -1.97505 1.94703 2.5
      vertex -3.52138 4.29683 2.5
      vertex -1.76921 4.03691 2.5
    endloop
  endfacet
  facet normal 0 0 -1
    outer loop
      vertex -3.93107 2.23718 2.5
      vertex -3.52138 4.29683 2.5
      vertex -1.97505 1.94703 2.5
    endloop
  endfacet
  facet normal 0 0 -1
    outer loop
      vertex -3.93107 2.23718 2.5
      vertex -5.23964 4.72723 2.5
      vertex -3.52138 4.29683 2.5
    endloop
  endfacet
  facet normal 0 0 -1
    outer loop
      vertex -5.84924 2.71765 2.5
      vertex -5.23964 4.72723 2.5
      vertex -3.93107 2.23718 2.5
    endloop
  endfacet
  facet normal 0 0 -1
    outer loop
      vertex -5.84924 2.71765 2.5
      vertex -6.90744 5.32397 2.5
      vertex -5.23964 4.72723 2.5
    endloop
  endfacet
  facet normal 0 0 -1
    outer loop
      vertex -7.71107 3.38383 2.5
      vertex -6.90744 5.32397 2.5
      vertex -5.84924 2.71765 2.5
    endloop
  endfacet
  facet normal 0 0 -1
    outer loop
      vertex -7.71107 3.38383 2.5
      vertex -8.50871 6.08132 2.5
      vertex -6.90744 5.32397 2.5
    endloop
  endfacet
  facet normal 0 0 -1
    outer loop
      vertex -9.49864 4.22929 2.5
      vertex -8.50871 6.08132 2.5
      vertex -7.71107 3.38383 2.5
    endloop
  endfacet
  facet normal 0 0 -1
    outer loop
      vertex -9.49864 4.22929 2.5
      vertex -10.028 6.99197 2.5
      vertex -8.50871 6.08132 2.5
    endloop
  endfacet
  facet normal 0 0 -1
    outer loop
      vertex -11.1947 5.24589 2.5
      vertex -10.028 6.99197 2.5
      vertex -9.49864 4.22929 2.5
    endloop
  endfacet
  facet normal 0 0 -1
    outer loop
      vertex -11.1947 5.24589 2.5
      vertex -11.4508 8.04716 2.5
      vertex -10.028 6.99197 2.5
    endloop
  endfacet
  facet normal 0 0 -1
    outer loop
      vertex -12.783 6.42384 2.5
      vertex -11.4508 8.04716 2.5
      vertex -11.1947 5.24589 2.5
    endloop
  endfacet
  facet normal -0 0 -1
    outer loop
      vertex -11.4508 8.04716 2.5
      vertex -12.783 6.42384 2.5
      vertex -12.7633 9.23672 2.5
    endloop
  endfacet
  facet normal 0 0 -1
    outer loop
      vertex -14.2482 7.7518 2.5
      vertex -12.7633 9.23672 2.5
      vertex -12.783 6.42384 2.5
    endloop
  endfacet
  facet normal -0 0 -1
    outer loop
      vertex -12.7633 9.23672 2.5
      vertex -14.2482 7.7518 2.5
      vertex -13.9528 10.5492 2.5
    endloop
  endfacet
  facet normal 0 0 -1
    outer loop
      vertex -15.5762 9.21698 2.5
      vertex -13.9528 10.5492 2.5
      vertex -14.2482 7.7518 2.5
    endloop
  endfacet
  facet normal 0 0 -1
    outer loop
      vertex -16.1689 10.0162 2.5
      vertex -13.9528 10.5492 2.5
      vertex -15.5762 9.21698 2.5
    endloop
  endfacet
  facet normal -0 0 -1
    outer loop
      vertex -13.9528 10.5492 2.5
      vertex -16.1689 10.0162 2.5
      vertex -15.008 11.972 2.5
    endloop
  endfacet
  facet normal -0 0 -1
    outer loop
      vertex -15.008 11.972 2.5
      vertex -16.1689 10.0162 2.5
      vertex -15.2302 12.3426 2.5
    endloop
  endfacet
  facet normal -0.427555 0.903989 0
    outer loop
      vertex 9.49864 4.22929 -2.5
      vertex 7.71107 3.38383 2.5
      vertex 9.49864 4.22929 2.5
    endloop
  endfacet
  facet normal -0.427555 0.903989 0
    outer loop
      vertex 7.71107 3.38383 2.5
      vertex 9.49864 4.22929 -2.5
      vertex 7.71107 3.38383 -2.5
    endloop
  endfacet
  facet normal 0.14673 0.989177 -0
    outer loop
      vertex -1.97505 1.94703 -2.5
      vertex -3.93107 2.23718 2.5
      vertex -1.97505 1.94703 2.5
    endloop
  endfacet
  facet normal 0.14673 0.989177 0
    outer loop
      vertex -3.93107 2.23718 2.5
      vertex -1.97505 1.94703 -2.5
      vertex -3.93107 2.23718 -2.5
    endloop
  endfacet
  facet normal 0.514103 0.857729 -0
    outer loop
      vertex -9.49864 4.22929 -2.5
      vertex -11.1947 5.24589 2.5
      vertex -9.49864 4.22929 2.5
    endloop
  endfacet
  facet normal 0.514103 0.857729 0
    outer loop
      vertex -11.1947 5.24589 2.5
      vertex -9.49864 4.22929 -2.5
      vertex -11.1947 5.24589 -2.5
    endloop
  endfacet
  facet normal 0.0490673 -0.998795 0
    outer loop
      vertex 0 3.95 -2.5
      vertex 1.76921 4.03691 2.5
      vertex 0 3.95 2.5
    endloop
  endfacet
  facet normal 0.0490673 -0.998795 0
    outer loop
      vertex 1.76921 4.03691 2.5
      vertex 0 3.95 -2.5
      vertex 1.76921 4.03691 -2.5
    endloop
  endfacet
  facet normal -0.671559 -0.740951 0
    outer loop
      vertex -12.7633 9.23672 -2.5
      vertex -11.4508 8.04716 2.5
      vertex -12.7633 9.23672 2.5
    endloop
  endfacet
  facet normal -0.671559 -0.740951 -0
    outer loop
      vertex -11.4508 8.04716 2.5
      vertex -12.7633 9.23672 -2.5
      vertex -11.4508 8.04716 -2.5
    endloop
  endfacet
  facet normal 0.146731 -0.989176 0
    outer loop
      vertex 1.76921 4.03691 -2.5
      vertex 3.52138 4.29683 2.5
      vertex 1.76921 4.03691 2.5
    endloop
  endfacet
  facet normal 0.146731 -0.989176 0
    outer loop
      vertex 3.52138 4.29683 2.5
      vertex 1.76921 4.03691 -2.5
      vertex 3.52138 4.29683 -2.5
    endloop
  endfacet
  facet normal 0.33689 -0.941544 0
    outer loop
      vertex 5.23964 4.72723 -2.5
      vertex 6.90744 5.32397 2.5
      vertex 5.23964 4.72723 2.5
    endloop
  endfacet
  facet normal 0.33689 -0.941544 0
    outer loop
      vertex 6.90744 5.32397 2.5
      vertex 5.23964 4.72723 -2.5
      vertex 6.90744 5.32397 -2.5
    endloop
  endfacet
  facet normal 0.671559 -0.740951 0
    outer loop
      vertex 11.4508 8.04716 -2.5
      vertex 12.7633 9.23672 2.5
      vertex 11.4508 8.04716 2.5
    endloop
  endfacet
  facet normal 0.671559 -0.740951 0
    outer loop
      vertex 12.7633 9.23672 2.5
      vertex 11.4508 8.04716 -2.5
      vertex 12.7633 9.23672 -2.5
    endloop
  endfacet
  facet normal 0.514103 -0.857729 0
    outer loop
      vertex 8.50871 6.08132 -2.5
      vertex 10.028 6.99197 2.5
      vertex 8.50871 6.08132 2.5
    endloop
  endfacet
  facet normal 0.514103 -0.857729 0
    outer loop
      vertex 10.028 6.99197 2.5
      vertex 8.50871 6.08132 -2.5
      vertex 10.028 6.99197 -2.5
    endloop
  endfacet
  facet normal 0.803207 -0.595699 0
    outer loop
      vertex 13.9528 10.5492 2.5
      vertex 15.008 11.972 -2.5
      vertex 15.008 11.972 2.5
    endloop
  endfacet
  facet normal 0.803207 -0.595699 0
    outer loop
      vertex 15.008 11.972 -2.5
      vertex 13.9528 10.5492 2.5
      vertex 13.9528 10.5492 -2.5
    endloop
  endfacet
  facet normal -0.595699 -0.803207 0
    outer loop
      vertex -11.4508 8.04716 -2.5
      vertex -10.028 6.99197 2.5
      vertex -11.4508 8.04716 2.5
    endloop
  endfacet
  facet normal -0.595699 -0.803207 -0
    outer loop
      vertex -10.028 6.99197 2.5
      vertex -11.4508 8.04716 -2.5
      vertex -10.028 6.99197 -2.5
    endloop
  endfacet
  facet normal -0.427555 -0.903989 0
    outer loop
      vertex -8.50871 6.08132 -2.5
      vertex -6.90744 5.32397 2.5
      vertex -8.50871 6.08132 2.5
    endloop
  endfacet
  facet normal -0.427555 -0.903989 -0
    outer loop
      vertex -6.90744 5.32397 2.5
      vertex -8.50871 6.08132 -2.5
      vertex -6.90744 5.32397 -2.5
    endloop
  endfacet
  facet normal -0.24298 -0.970031 0
    outer loop
      vertex -5.23964 4.72723 -2.5
      vertex -3.52138 4.29683 2.5
      vertex -5.23964 4.72723 2.5
    endloop
  endfacet
  facet normal -0.24298 -0.970031 -0
    outer loop
      vertex -3.52138 4.29683 2.5
      vertex -5.23964 4.72723 -2.5
      vertex -3.52138 4.29683 -2.5
    endloop
  endfacet
  facet normal -0.0490673 -0.998795 0
    outer loop
      vertex -1.76921 4.03691 -2.5
      vertex 0 3.95 2.5
      vertex -1.76921 4.03691 2.5
    endloop
  endfacet
  facet normal -0.0490673 -0.998795 -0
    outer loop
      vertex 0 3.95 2.5
      vertex -1.76921 4.03691 -2.5
      vertex 0 3.95 -2.5
    endloop
  endfacet
  facet normal -0.857729 -0.514103 0
    outer loop
      vertex -15.008 11.972 -2.5
      vertex -15.2302 12.3426 2.5
      vertex -15.2302 12.3426 -2.5
    endloop
  endfacet
  facet normal -0.857729 -0.514103 0
    outer loop
      vertex -15.2302 12.3426 2.5
      vertex -15.008 11.972 -2.5
      vertex -15.008 11.972 2.5
    endloop
  endfacet
  facet normal -0.740951 -0.671559 0
    outer loop
      vertex -12.7633 9.23672 -2.5
      vertex -13.9528 10.5492 2.5
      vertex -13.9528 10.5492 -2.5
    endloop
  endfacet
  facet normal -0.740951 -0.671559 0
    outer loop
      vertex -13.9528 10.5492 2.5
      vertex -12.7633 9.23672 -2.5
      vertex -12.7633 9.23672 2.5
    endloop
  endfacet
  facet normal 0.24298 -0.970031 0
    outer loop
      vertex 3.52138 4.29683 -2.5
      vertex 5.23964 4.72723 2.5
      vertex 3.52138 4.29683 2.5
    endloop
  endfacet
  facet normal 0.24298 -0.970031 0
    outer loop
      vertex 5.23964 4.72723 2.5
      vertex 3.52138 4.29683 -2.5
      vertex 5.23964 4.72723 -2.5
    endloop
  endfacet
  facet normal 0.427555 -0.903989 0
    outer loop
      vertex 6.90744 5.32397 -2.5
      vertex 8.50871 6.08132 2.5
      vertex 6.90744 5.32397 2.5
    endloop
  endfacet
  facet normal 0.427555 -0.903989 0
    outer loop
      vertex 8.50871 6.08132 2.5
      vertex 6.90744 5.32397 -2.5
      vertex 8.50871 6.08132 -2.5
    endloop
  endfacet
  facet normal 0.740951 -0.671559 0
    outer loop
      vertex 12.7633 9.23672 2.5
      vertex 13.9528 10.5492 -2.5
      vertex 13.9528 10.5492 2.5
    endloop
  endfacet
  facet normal 0.740951 -0.671559 0
    outer loop
      vertex 13.9528 10.5492 -2.5
      vertex 12.7633 9.23672 2.5
      vertex 12.7633 9.23672 -2.5
    endloop
  endfacet
  facet normal 0.595699 -0.803207 0
    outer loop
      vertex 10.028 6.99197 -2.5
      vertex 11.4508 8.04716 2.5
      vertex 10.028 6.99197 2.5
    endloop
  endfacet
  facet normal 0.595699 -0.803207 0
    outer loop
      vertex 11.4508 8.04716 2.5
      vertex 10.028 6.99197 -2.5
      vertex 11.4508 8.04716 -2.5
    endloop
  endfacet
  facet normal 0.857729 -0.514103 0
    outer loop
      vertex 15.008 11.972 2.5
      vertex 15.2302 12.3426 -2.5
      vertex 15.2302 12.3426 2.5
    endloop
  endfacet
  facet normal 0.857729 -0.514103 0
    outer loop
      vertex 15.2302 12.3426 -2.5
      vertex 15.008 11.972 2.5
      vertex 15.008 11.972 -2.5
    endloop
  endfacet
  facet normal -0.514103 -0.857729 0
    outer loop
      vertex -10.028 6.99197 -2.5
      vertex -8.50871 6.08132 2.5
      vertex -10.028 6.99197 2.5
    endloop
  endfacet
  facet normal -0.514103 -0.857729 -0
    outer loop
      vertex -8.50871 6.08132 2.5
      vertex -10.028 6.99197 -2.5
      vertex -8.50871 6.08132 -2.5
    endloop
  endfacet
  facet normal -0.33689 -0.941544 0
    outer loop
      vertex -6.90744 5.32397 -2.5
      vertex -5.23964 4.72723 2.5
      vertex -6.90744 5.32397 2.5
    endloop
  endfacet
  facet normal -0.33689 -0.941544 -0
    outer loop
      vertex -5.23964 4.72723 2.5
      vertex -6.90744 5.32397 -2.5
      vertex -5.23964 4.72723 -2.5
    endloop
  endfacet
  facet normal -0.146731 -0.989176 0
    outer loop
      vertex -3.52138 4.29683 -2.5
      vertex -1.76921 4.03691 2.5
      vertex -3.52138 4.29683 2.5
    endloop
  endfacet
  facet normal -0.146731 -0.989176 -0
    outer loop
      vertex -1.76921 4.03691 2.5
      vertex -3.52138 4.29683 -2.5
      vertex -1.76921 4.03691 -2.5
    endloop
  endfacet
  facet normal -0.803207 -0.595699 0
    outer loop
      vertex -13.9528 10.5492 -2.5
      vertex -15.008 11.972 2.5
      vertex -15.008 11.972 -2.5
    endloop
  endfacet
  facet normal -0.803207 -0.595699 0
    outer loop
      vertex -15.008 11.972 2.5
      vertex -13.9528 10.5492 -2.5
      vertex -13.9528 10.5492 2.5
    endloop
  endfacet
  facet normal 0.0490676 0.998795 -0
    outer loop
      vertex 0 5 -3.5
      vertex -1.66629 5.08186 3.5
      vertex 0 5 3.5
    endloop
  endfacet
  facet normal 0.0490676 0.998795 0
    outer loop
      vertex -1.66629 5.08186 3.5
      vertex 0 5 -3.5
      vertex -1.66629 5.08186 -3.5
    endloop
  endfacet
  facet normal 0.595699 0.803207 -0
    outer loop
      vertex -9.44469 7.86502 -3.5
      vertex -10.7847 8.85882 3.5
      vertex -9.44469 7.86502 3.5
    endloop
  endfacet
  facet normal 0.595699 0.803207 0
    outer loop
      vertex -10.7847 8.85882 3.5
      vertex -9.44469 7.86502 -3.5
      vertex -10.7847 8.85882 -3.5
    endloop
  endfacet
  facet normal -0.14673 0.989177 0
    outer loop
      vertex 3.31653 5.32665 -3.5
      vertex 1.66629 5.08186 3.5
      vertex 3.31653 5.32665 3.5
    endloop
  endfacet
  facet normal -0.14673 0.989177 0
    outer loop
      vertex 1.66629 5.08186 3.5
      vertex 3.31653 5.32665 -3.5
      vertex 1.66629 5.08186 -3.5
    endloop
  endfacet
  facet normal -0.33689 0.941544 0
    outer loop
      vertex 6.50562 6.29405 -3.5
      vertex 4.93484 5.73201 3.5
      vertex 6.50562 6.29405 3.5
    endloop
  endfacet
  facet normal -0.33689 0.941544 0
    outer loop
      vertex 4.93484 5.73201 3.5
      vertex 6.50562 6.29405 -3.5
      vertex 4.93484 5.73201 -3.5
    endloop
  endfacet
  facet normal -0.740951 0.671559 0
    outer loop
      vertex 12.0208 9.97918 -3.5
      vertex 13.1412 11.2153 3.5
      vertex 13.1412 11.2153 -3.5
    endloop
  endfacet
  facet normal -0.740951 0.671559 0
    outer loop
      vertex 13.1412 11.2153 3.5
      vertex 12.0208 9.97918 -3.5
      vertex 12.0208 9.97918 3.5
    endloop
  endfacet
  facet normal -0.671559 0.740951 0
    outer loop
      vertex 12.0208 9.97918 -3.5
      vertex 10.7847 8.85882 3.5
      vertex 12.0208 9.97918 3.5
    endloop
  endfacet
  facet normal -0.671559 0.740951 0
    outer loop
      vertex 10.7847 8.85882 3.5
      vertex 12.0208 9.97918 -3.5
      vertex 10.7847 8.85882 -3.5
    endloop
  endfacet
  facet normal -0.514103 0.857728 0
    outer loop
      vertex 9.44469 7.86502 -3.5
      vertex 8.01374 7.00734 3.5
      vertex 9.44469 7.86502 3.5
    endloop
  endfacet
  facet normal -0.514103 0.857728 0
    outer loop
      vertex 8.01374 7.00734 3.5
      vertex 9.44469 7.86502 -3.5
      vertex 8.01374 7.00734 -3.5
    endloop
  endfacet
  facet normal 0.24298 0.970031 -0
    outer loop
      vertex -3.31653 5.32665 -3.5
      vertex -4.93484 5.73201 3.5
      vertex -3.31653 5.32665 3.5
    endloop
  endfacet
  facet normal 0.24298 0.970031 0
    outer loop
      vertex -4.93484 5.73201 3.5
      vertex -3.31653 5.32665 -3.5
      vertex -4.93484 5.73201 -3.5
    endloop
  endfacet
  facet normal 0.427555 0.903989 -0
    outer loop
      vertex -6.50562 6.29405 -3.5
      vertex -8.01374 7.00734 3.5
      vertex -6.50562 6.29405 3.5
    endloop
  endfacet
  facet normal 0.427555 0.903989 0
    outer loop
      vertex -8.01374 7.00734 3.5
      vertex -6.50562 6.29405 -3.5
      vertex -8.01374 7.00734 -3.5
    endloop
  endfacet
  facet normal 0.740951 0.671559 0
    outer loop
      vertex -12.0208 9.97918 3.5
      vertex -13.1412 11.2153 -3.5
      vertex -13.1412 11.2153 3.5
    endloop
  endfacet
  facet normal 0.740951 0.671559 0
    outer loop
      vertex -13.1412 11.2153 -3.5
      vertex -12.0208 9.97918 3.5
      vertex -12.0208 9.97918 -3.5
    endloop
  endfacet
  facet normal 0.857728 0.514103 0
    outer loop
      vertex -14.135 12.5553 3.5
      vertex -14.7382 13.5618 -3.5
      vertex -14.7382 13.5618 3.5
    endloop
  endfacet
  facet normal 0.857728 0.514103 0
    outer loop
      vertex -14.7382 13.5618 -3.5
      vertex -14.135 12.5553 3.5
      vertex -14.135 12.5553 -3.5
    endloop
  endfacet
  facet normal 0.671559 0.740951 -0
    outer loop
      vertex -10.7847 8.85882 -3.5
      vertex -12.0208 9.97918 3.5
      vertex -10.7847 8.85882 3.5
    endloop
  endfacet
  facet normal 0.671559 0.740951 0
    outer loop
      vertex -12.0208 9.97918 3.5
      vertex -10.7847 8.85882 -3.5
      vertex -12.0208 9.97918 -3.5
    endloop
  endfacet
  facet normal -0.24298 0.970031 0
    outer loop
      vertex 4.93484 5.73201 -3.5
      vertex 3.31653 5.32665 3.5
      vertex 4.93484 5.73201 3.5
    endloop
  endfacet
  facet normal -0.24298 0.970031 0
    outer loop
      vertex 3.31653 5.32665 3.5
      vertex 4.93484 5.73201 -3.5
      vertex 3.31653 5.32665 -3.5
    endloop
  endfacet
  facet normal -0.427555 0.903989 0
    outer loop
      vertex 8.01374 7.00734 -3.5
      vertex 6.50562 6.29405 3.5
      vertex 8.01374 7.00734 3.5
    endloop
  endfacet
  facet normal -0.427555 0.903989 0
    outer loop
      vertex 6.50562 6.29405 3.5
      vertex 8.01374 7.00734 -3.5
      vertex 6.50562 6.29405 -3.5
    endloop
  endfacet
  facet normal -0.595699 0.803207 0
    outer loop
      vertex 10.7847 8.85882 -3.5
      vertex 9.44469 7.86502 3.5
      vertex 10.7847 8.85882 3.5
    endloop
  endfacet
  facet normal -0.595699 0.803207 0
    outer loop
      vertex 9.44469 7.86502 3.5
      vertex 10.7847 8.85882 -3.5
      vertex 9.44469 7.86502 -3.5
    endloop
  endfacet
  facet normal -0.0490676 0.998795 0
    outer loop
      vertex 1.66629 5.08186 -3.5
      vertex 0 5 3.5
      vertex 1.66629 5.08186 3.5
    endloop
  endfacet
  facet normal -0.0490676 0.998795 0
    outer loop
      vertex 0 5 3.5
      vertex 1.66629 5.08186 -3.5
      vertex 0 5 -3.5
    endloop
  endfacet
  facet normal 0.14673 0.989177 -0
    outer loop
      vertex -1.66629 5.08186 -3.5
      vertex -3.31653 5.32665 3.5
      vertex -1.66629 5.08186 3.5
    endloop
  endfacet
  facet normal 0.14673 0.989177 0
    outer loop
      vertex -3.31653 5.32665 3.5
      vertex -1.66629 5.08186 -3.5
      vertex -3.31653 5.32665 -3.5
    endloop
  endfacet
  facet normal 0.33689 0.941544 -0
    outer loop
      vertex -4.93484 5.73201 -3.5
      vertex -6.50562 6.29405 3.5
      vertex -4.93484 5.73201 3.5
    endloop
  endfacet
  facet normal 0.33689 0.941544 0
    outer loop
      vertex -6.50562 6.29405 3.5
      vertex -4.93484 5.73201 -3.5
      vertex -6.50562 6.29405 -3.5
    endloop
  endfacet
  facet normal 0.514103 0.857728 -0
    outer loop
      vertex -8.01374 7.00734 -3.5
      vertex -9.44469 7.86502 3.5
      vertex -8.01374 7.00734 3.5
    endloop
  endfacet
  facet normal 0.514103 0.857728 0
    outer loop
      vertex -9.44469 7.86502 3.5
      vertex -8.01374 7.00734 -3.5
      vertex -9.44469 7.86502 -3.5
    endloop
  endfacet
  facet normal 0.803207 0.595699 0
    outer loop
      vertex -13.1412 11.2153 3.5
      vertex -14.135 12.5553 -3.5
      vertex -14.135 12.5553 3.5
    endloop
  endfacet
  facet normal 0.803207 0.595699 0
    outer loop
      vertex -14.135 12.5553 -3.5
      vertex -13.1412 11.2153 3.5
      vertex -13.1412 11.2153 -3.5
    endloop
  endfacet
  facet normal -0.857728 0.514103 0
    outer loop
      vertex 14.135 12.5553 -3.5
      vertex 14.7382 13.5618 3.5
      vertex 14.7382 13.5618 -3.5
    endloop
  endfacet
  facet normal -0.857728 0.514103 0
    outer loop
      vertex 14.7382 13.5618 3.5
      vertex 14.135 12.5553 -3.5
      vertex 14.135 12.5553 3.5
    endloop
  endfacet
  facet normal -0.803207 0.595699 0
    outer loop
      vertex 13.1412 11.2153 -3.5
      vertex 14.135 12.5553 3.5
      vertex 14.135 12.5553 -3.5
    endloop
  endfacet
  facet normal -0.803207 0.595699 0
    outer loop
      vertex 14.135 12.5553 3.5
      vertex 13.1412 11.2153 -3.5
      vertex 13.1412 11.2153 3.5
    endloop
  endfacet
  facet normal -0.980785 -0.195092 0
    outer loop
      vertex 17.5 4 -3.5
      vertex 17.3858 4.57402 3.5
      vertex 17.3858 4.57402 -3.5
    endloop
  endfacet
  facet normal -0.980785 -0.195092 0
    outer loop
      vertex 17.3858 4.57402 3.5
      vertex 17.5 4 -3.5
      vertex 17.5 4 3.5
    endloop
  endfacet
  facet normal 0.980785 0.19509 0
    outer loop
      vertex 14.6142 3.42597 3.5
      vertex 14.5 4 -3.5
      vertex 14.5 4 3.5
    endloop
  endfacet
  facet normal 0.980785 0.19509 0
    outer loop
      vertex 14.5 4 -3.5
      vertex 14.6142 3.42597 3.5
      vertex 14.6142 3.42597 -3.5
    endloop
  endfacet
  facet normal 0.195092 -0.980785 0
    outer loop
      vertex 15.426 5.38582 -3.5
      vertex 16 5.5 3.5
      vertex 15.426 5.38582 3.5
    endloop
  endfacet
  facet normal 0.195092 -0.980785 0
    outer loop
      vertex 16 5.5 3.5
      vertex 15.426 5.38582 -3.5
      vertex 16 5.5 -3.5
    endloop
  endfacet
  facet normal -0.19509 0.980785 0
    outer loop
      vertex 16.574 2.61418 -3.5
      vertex 16 2.5 3.5
      vertex 16.574 2.61418 3.5
    endloop
  endfacet
  facet normal -0.19509 0.980785 0
    outer loop
      vertex 16 2.5 3.5
      vertex 16.574 2.61418 -3.5
      vertex 16 2.5 -3.5
    endloop
  endfacet
  facet normal -0.55557 -0.83147 0
    outer loop
      vertex 16.574 5.38582 -3.5
      vertex 17.0607 5.06066 3.5
      vertex 16.574 5.38582 3.5
    endloop
  endfacet
  facet normal -0.55557 -0.83147 -0
    outer loop
      vertex 17.0607 5.06066 3.5
      vertex 16.574 5.38582 -3.5
      vertex 17.0607 5.06066 -3.5
    endloop
  endfacet
  facet normal -0.83147 -0.55557 0
    outer loop
      vertex 17.3858 4.57402 -3.5
      vertex 17.0607 5.06066 3.5
      vertex 17.0607 5.06066 -3.5
    endloop
  endfacet
  facet normal -0.83147 -0.55557 0
    outer loop
      vertex 17.0607 5.06066 3.5
      vertex 17.3858 4.57402 -3.5
      vertex 17.3858 4.57402 3.5
    endloop
  endfacet
  facet normal -0.195092 -0.980785 0
    outer loop
      vertex 16 5.5 -3.5
      vertex 16.574 5.38582 3.5
      vertex 16 5.5 3.5
    endloop
  endfacet
  facet normal -0.195092 -0.980785 -0
    outer loop
      vertex 16.574 5.38582 3.5
      vertex 16 5.5 -3.5
      vertex 16.574 5.38582 -3.5
    endloop
  endfacet
  facet normal 0.83147 -0.55557 0
    outer loop
      vertex 14.6142 4.57402 3.5
      vertex 14.9393 5.06066 -3.5
      vertex 14.9393 5.06066 3.5
    endloop
  endfacet
  facet normal 0.83147 -0.55557 0
    outer loop
      vertex 14.9393 5.06066 -3.5
      vertex 14.6142 4.57402 3.5
      vertex 14.6142 4.57402 -3.5
    endloop
  endfacet
  facet normal 0.980785 -0.19509 0
    outer loop
      vertex 14.5 4 3.5
      vertex 14.6142 4.57402 -3.5
      vertex 14.6142 4.57402 3.5
    endloop
  endfacet
  facet normal 0.980785 -0.19509 0
    outer loop
      vertex 14.6142 4.57402 -3.5
      vertex 14.5 4 3.5
      vertex 14.5 4 -3.5
    endloop
  endfacet
  facet normal 0.55557 -0.83147 0
    outer loop
      vertex 14.9393 5.06066 -3.5
      vertex 15.426 5.38582 3.5
      vertex 14.9393 5.06066 3.5
    endloop
  endfacet
  facet normal 0.55557 -0.83147 0
    outer loop
      vertex 15.426 5.38582 3.5
      vertex 14.9393 5.06066 -3.5
      vertex 15.426 5.38582 -3.5
    endloop
  endfacet
  facet normal -0.980785 0.195092 0
    outer loop
      vertex 17.3858 3.42597 -3.5
      vertex 17.5 4 3.5
      vertex 17.5 4 -3.5
    endloop
  endfacet
  facet normal -0.980785 0.195092 0
    outer loop
      vertex 17.5 4 3.5
      vertex 17.3858 3.42597 -3.5
      vertex 17.3858 3.42597 3.5
    endloop
  endfacet
  facet normal 0.83147 0.55557 0
    outer loop
      vertex 14.9393 2.93934 3.5
      vertex 14.6142 3.42597 -3.5
      vertex 14.6142 3.42597 3.5
    endloop
  endfacet
  facet normal 0.83147 0.55557 0
    outer loop
      vertex 14.6142 3.42597 -3.5
      vertex 14.9393 2.93934 3.5
      vertex 14.9393 2.93934 -3.5
    endloop
  endfacet
  facet normal -0.55557 0.83147 0
    outer loop
      vertex 17.0607 2.93934 -3.5
      vertex 16.574 2.61418 3.5
      vertex 17.0607 2.93934 3.5
    endloop
  endfacet
  facet normal -0.55557 0.83147 0
    outer loop
      vertex 16.574 2.61418 3.5
      vertex 17.0607 2.93934 -3.5
      vertex 16.574 2.61418 -3.5
    endloop
  endfacet
  facet normal -0.83147 0.55557 0
    outer loop
      vertex 17.0607 2.93934 -3.5
      vertex 17.3858 3.42597 3.5
      vertex 17.3858 3.42597 -3.5
    endloop
  endfacet
  facet normal -0.83147 0.55557 0
    outer loop
      vertex 17.3858 3.42597 3.5
      vertex 17.0607 2.93934 -3.5
      vertex 17.0607 2.93934 3.5
    endloop
  endfacet
  facet normal 0.19509 0.980785 -0
    outer loop
      vertex 16 2.5 -3.5
      vertex 15.426 2.61418 3.5
      vertex 16 2.5 3.5
    endloop
  endfacet
  facet normal 0.19509 0.980785 0
    outer loop
      vertex 15.426 2.61418 3.5
      vertex 16 2.5 -3.5
      vertex 15.426 2.61418 -3.5
    endloop
  endfacet
  facet normal 0.55557 0.83147 -0
    outer loop
      vertex 15.426 2.61418 -3.5
      vertex 14.9393 2.93934 3.5
      vertex 15.426 2.61418 3.5
    endloop
  endfacet
  facet normal 0.55557 0.83147 0
    outer loop
      vertex 14.9393 2.93934 3.5
      vertex 15.426 2.61418 -3.5
      vertex 14.9393 2.93934 -3.5
    endloop
  endfacet
  facet normal -0.980785 -0.19509 0
    outer loop
      vertex -14.5 4 -3.5
      vertex -14.6142 4.57402 3.5
      vertex -14.6142 4.57402 -3.5
    endloop
  endfacet
  facet normal -0.980785 -0.19509 0
    outer loop
      vertex -14.6142 4.57402 3.5
      vertex -14.5 4 -3.5
      vertex -14.5 4 3.5
    endloop
  endfacet
  facet normal 0.980785 -0.195092 0
    outer loop
      vertex -17.5 4 3.5
      vertex -17.3858 4.57402 -3.5
      vertex -17.3858 4.57402 3.5
    endloop
  endfacet
  facet normal 0.980785 -0.195092 0
    outer loop
      vertex -17.3858 4.57402 -3.5
      vertex -17.5 4 3.5
      vertex -17.5 4 -3.5
    endloop
  endfacet
  facet normal -0.195092 -0.980785 0
    outer loop
      vertex -16 5.5 -3.5
      vertex -15.426 5.38582 3.5
      vertex -16 5.5 3.5
    endloop
  endfacet
  facet normal -0.195092 -0.980785 -0
    outer loop
      vertex -15.426 5.38582 3.5
      vertex -16 5.5 -3.5
      vertex -15.426 5.38582 -3.5
    endloop
  endfacet
  facet normal -0.83147 -0.55557 0
    outer loop
      vertex -14.6142 4.57402 -3.5
      vertex -14.9393 5.06066 3.5
      vertex -14.9393 5.06066 -3.5
    endloop
  endfacet
  facet normal -0.83147 -0.55557 0
    outer loop
      vertex -14.9393 5.06066 3.5
      vertex -14.6142 4.57402 -3.5
      vertex -14.6142 4.57402 3.5
    endloop
  endfacet
  facet normal 0.19509 0.980785 -0
    outer loop
      vertex -16 2.5 -3.5
      vertex -16.574 2.61418 3.5
      vertex -16 2.5 3.5
    endloop
  endfacet
  facet normal 0.19509 0.980785 0
    outer loop
      vertex -16.574 2.61418 3.5
      vertex -16 2.5 -3.5
      vertex -16.574 2.61418 -3.5
    endloop
  endfacet
  facet normal -0.55557 -0.83147 0
    outer loop
      vertex -15.426 5.38582 -3.5
      vertex -14.9393 5.06066 3.5
      vertex -15.426 5.38582 3.5
    endloop
  endfacet
  facet normal -0.55557 -0.83147 -0
    outer loop
      vertex -14.9393 5.06066 3.5
      vertex -15.426 5.38582 -3.5
      vertex -14.9393 5.06066 -3.5
    endloop
  endfacet
  facet normal 0.55557 -0.83147 0
    outer loop
      vertex -17.0607 5.06066 -3.5
      vertex -16.574 5.38582 3.5
      vertex -17.0607 5.06066 3.5
    endloop
  endfacet
  facet normal 0.55557 -0.83147 0
    outer loop
      vertex -16.574 5.38582 3.5
      vertex -17.0607 5.06066 -3.5
      vertex -16.574 5.38582 -3.5
    endloop
  endfacet
  facet normal 0.83147 -0.55557 0
    outer loop
      vertex -17.3858 4.57402 3.5
      vertex -17.0607 5.06066 -3.5
      vertex -17.0607 5.06066 3.5
    endloop
  endfacet
  facet normal 0.83147 -0.55557 0
    outer loop
      vertex -17.0607 5.06066 -3.5
      vertex -17.3858 4.57402 3.5
      vertex -17.3858 4.57402 -3.5
    endloop
  endfacet
  facet normal 0.195092 -0.980785 0
    outer loop
      vertex -16.574 5.38582 -3.5
      vertex -16 5.5 3.5
      vertex -16.574 5.38582 3.5
    endloop
  endfacet
  facet normal 0.195092 -0.980785 0
    outer loop
      vertex -16 5.5 3.5
      vertex -16.574 5.38582 -3.5
      vertex -16 5.5 -3.5
    endloop
  endfacet
  facet normal -0.19509 0.980785 0
    outer loop
      vertex -15.426 2.61418 -3.5
      vertex -16 2.5 3.5
      vertex -15.426 2.61418 3.5
    endloop
  endfacet
  facet normal -0.19509 0.980785 0
    outer loop
      vertex -16 2.5 3.5
      vertex -15.426 2.61418 -3.5
      vertex -16 2.5 -3.5
    endloop
  endfacet
  facet normal -0.83147 0.55557 0
    outer loop
      vertex -14.9393 2.93934 -3.5
      vertex -14.6142 3.42597 3.5
      vertex -14.6142 3.42597 -3.5
    endloop
  endfacet
  facet normal -0.83147 0.55557 0
    outer loop
      vertex -14.6142 3.42597 3.5
      vertex -14.9393 2.93934 -3.5
      vertex -14.9393 2.93934 3.5
    endloop
  endfacet
  facet normal 0.55557 0.83147 -0
    outer loop
      vertex -16.574 2.61418 -3.5
      vertex -17.0607 2.93934 3.5
      vertex -16.574 2.61418 3.5
    endloop
  endfacet
  facet normal 0.55557 0.83147 0
    outer loop
      vertex -17.0607 2.93934 3.5
      vertex -16.574 2.61418 -3.5
      vertex -17.0607 2.93934 -3.5
    endloop
  endfacet
  facet normal 0.980785 0.195092 0
    outer loop
      vertex -17.3858 3.42597 3.5
      vertex -17.5 4 -3.5
      vertex -17.5 4 3.5
    endloop
  endfacet
  facet normal 0.980785 0.195092 0
    outer loop
      vertex -17.5 4 -3.5
      vertex -17.3858 3.42597 3.5
      vertex -17.3858 3.42597 -3.5
    endloop
  endfacet
  facet normal -0.55557 0.83147 0
    outer loop
      vertex -14.9393 2.93934 -3.5
      vertex -15.426 2.61418 3.5
      vertex -14.9393 2.93934 3.5
    endloop
  endfacet
  facet normal -0.55557 0.83147 0
    outer loop
      vertex -15.426 2.61418 3.5
      vertex -14.9393 2.93934 -3.5
      vertex -15.426 2.61418 -3.5
    endloop
  endfacet
  facet normal -0.980785 0.19509 0
    outer loop
      vertex -14.6142 3.42597 -3.5
      vertex -14.5 4 3.5
      vertex -14.5 4 -3.5
    endloop
  endfacet
  facet normal -0.980785 0.19509 0
    outer loop
      vertex -14.5 4 3.5
      vertex -14.6142 3.42597 -3.5
      vertex -14.6142 3.42597 3.5
    endloop
  endfacet
  facet normal 0.83147 0.55557 0
    outer loop
      vertex -17.0607 2.93934 3.5
      vertex -17.3858 3.42597 -3.5
      vertex -17.3858 3.42597 3.5
    endloop
  endfacet
  facet normal 0.83147 0.55557 0
    outer loop
      vertex -17.3858 3.42597 -3.5
      vertex -17.0607 2.93934 3.5
      vertex -17.0607 2.93934 -3.5
    endloop
  endfacet
endsolid OpenSCAD_Model
